<svg xmlns="http://www.w3.org/2000/svg" version="1.1" xmlns:xlink="http://www.w3.org/1999/xlink" xmlns:svgjs="http://svgjs.com/svgjs" width="2000" height="2500" preserveAspectRatio="none" viewBox="0 0 2000 2500"><g mask="url(&quot;#SvgjsMask1184&quot;)" fill="none"><rect width="2000" height="2500" x="0" y="0" fill="url(#SvgjsLinearGradient1185)"></rect><path d="M-163.79 502.72 a574.25 574.25 0 1 0 1148.5 0 a574.25 574.25 0 1 0 -1148.5 0z" fill="rgba(0, 0, 0, 0.55)" class="triangle-float3"></path><path d="M1410.5940744159768-215.07469166504114L1132.1548526020301 168.16401918973776 1793.8327852707557 63.36453014890549z" fill="rgba(0, 0, 0, 0.55)" class="triangle-float3"></path><path d="M127.41 2228.28 a360.78 360.78 0 1 0 721.56 0 a360.78 360.78 0 1 0 -721.56 0z" fill="rgba(0, 0, 0, 0.55)" class="triangle-float2"></path><path d="M1416.22 1513.32 a542.12 542.12 0 1 0 1084.24 0 a542.12 542.12 0 1 0 -1084.24 0z" fill="rgba(0, 0, 0, 0.55)" class="triangle-float1"></path><path d="M1330.960047485119 1258.5756327468753L1717.5284107858229 1549.8757885537289 2008.8285665926765 1163.307425253025 1622.2602032919726 872.0072694461714z" fill="rgba(0, 0, 0, 0.55)" class="triangle-float1"></path><path d="M552.491,1769.367C599.806,1770.665,648.579,1758.325,675.071,1719.1C704.779,1675.112,712.372,1617.307,686.484,1570.968C660.038,1523.63,606.606,1496.238,552.491,1499.681C503.292,1502.811,467.954,1542.646,445.097,1586.325C424.156,1626.343,418.172,1673.726,441.028,1712.682C463.636,1751.215,507.832,1768.142,552.491,1769.367" fill="rgba(0, 0, 0, 0.55)" class="triangle-float2"></path><path d="M698.4591506227678 889.9888133284484L916.6036711246221 376.07252861266636 402.6873864088401 157.92800811081202 184.54286590698575 671.844292826594z" fill="rgba(0, 0, 0, 0.55)" class="triangle-float3"></path><path d="M594.516,2912.601C713.661,2913.317,812.363,2828.902,869.979,2724.612C925.545,2624.034,926.645,2506.199,876.029,2403.042C817.828,2284.426,726.641,2163.556,594.516,2163.209C462.031,2162.861,368.087,2282.275,310.429,2401.556C260.659,2504.518,269.167,2621.38,324.731,2721.334C382.137,2824.601,476.368,2911.891,594.516,2912.601" fill="rgba(0, 0, 0, 0.55)" class="triangle-float3"></path><path d="M643.667,1683.14C773.819,1677.43,905.7,1631.403,968.365,1517.187C1029.146,1406.405,989.994,1275.677,927.469,1165.869C864.106,1054.59,771.195,958.538,643.667,946.947C494.039,933.347,333.809,977.463,253.81,1104.639C169.437,1238.769,177.012,1416.612,265.567,1548.018C345.734,1666.976,500.356,1689.427,643.667,1683.14" fill="rgba(0, 0, 0, 0.55)" class="triangle-float1"></path><path d="M431.0781069672647 508.40280058815745L519.3538536209844 154.34811901577746 77.02342539488473 420.12705393443775z" fill="rgba(0, 0, 0, 0.55)" class="triangle-float1"></path></g><defs><mask id="SvgjsMask1184"><rect width="2000" height="2500" fill="#ffffff"></rect></mask><linearGradient x1="106.25%" y1="95%" x2="-6.25%" y2="5%" gradientUnits="userSpaceOnUse" id="SvgjsLinearGradient1185"><stop stop-color="rgba(0, 0, 0, 1)" offset="0"></stop><stop stop-color="rgba(121, 121, 121, 1)" offset="0.5"></stop><stop stop-color="rgba(255, 255, 255, 1)" offset="1"></stop></linearGradient><style>
            @keyframes float1 {
                0%{transform: translate(0, 0)}
                50%{transform: translate(-10px, 0)}
                100%{transform: translate(0, 0)}
            }

            .triangle-float1 {
                animation: float1 5s infinite;
            }

            @keyframes float2 {
                0%{transform: translate(0, 0)}
                50%{transform: translate(-5px, -5px)}
                100%{transform: translate(0, 0)}
            }

            .triangle-float2 {
                animation: float2 4s infinite;
            }

            @keyframes float3 {
                0%{transform: translate(0, 0)}
                50%{transform: translate(0, -10px)}
                100%{transform: translate(0, 0)}
            }

            .triangle-float3 {
                animation: float3 6s infinite;
            }
        </style></defs></svg>